<svg width="40" height="40" viewBox="0 0 40 40" fill="none" xmlns="http://www.w3.org/2000/svg">
<circle cx="13" cy="7" r="6" fill="#FF752B"/>
<path d="M32.6402 27.2394C24.6774 25.0648 25.12 25.2503 24.7738 25.0624C26.1271 22.9075 27.0259 20.0073 27.42 17.2454C28.3455 16.8563 29.0897 15.218 29.2428 14.2931C29.2428 14.2925 29.243 14.2919 29.243 14.2913C29.4943 12.7295 28.6077 11.8044 27.6256 11.8413C28.0733 9.14149 28.902 6.64853 27.4528 4.80064C27.943 3.82126 27.9172 2.70837 27.3752 1.48774C26.7029 -0.0243645 24.7884 -0.385068 23.4809 0.58212C22.8 1.08446 21.8417 1.38251 20.6296 1.46798C17.4705 1.71235 14.4771 2.14985 12.5719 4.77907C11.2721 6.53173 11.1908 8.05032 12.293 11.8459C11.1814 11.9057 10.6239 13.0565 10.8227 14.293C10.9722 15.1966 11.7028 16.8106 12.576 17.2182C12.9725 20.0202 13.8905 22.9652 15.2744 25.1345C15.1124 25.2042 15.6877 25.043 7.36426 27.237C4.31129 27.9922 2.62988 29.6493 2.62988 31.9027V37.4845C2.62988 38.8468 3.73824 39.9552 5.10074 39.9552H34.8989C36.2614 39.9552 37.3698 38.8468 37.3698 37.4845V31.9028C37.3699 29.654 35.6872 27.9971 32.6402 27.2394ZM30.11 30.5994H28.1261V26.8809L30.11 27.4166V30.5994ZM28.4223 14.1581C28.3346 14.6874 27.9746 15.5519 27.5575 16.0807C27.6693 14.8642 27.6756 13.7067 27.5729 12.6803C28.2935 12.582 28.5392 13.4297 28.4223 14.1581ZM13.2425 5.27087C14.9442 2.92235 17.6238 2.53462 20.6909 2.29735C22.0599 2.20071 23.1646 1.84876 23.975 1.25087C24.8633 0.594307 26.1634 0.808292 26.6153 1.82532C27.0962 2.90814 27.0899 3.82649 26.5958 4.63298C26.5487 4.70985 26.5279 4.79996 26.5365 4.8897C26.545 4.97945 26.5825 5.06398 26.6433 5.13056C27.9254 6.53399 27.4007 8.42985 26.9347 10.9477C25.7435 8.27767 24.7642 6.71353 23.6771 6.99587C20.8181 7.73556 19.1689 7.73571 16.3237 6.9961C15.0879 6.67454 13.7434 9.21525 12.9407 11.0843C12.0211 7.74415 12.24 6.62243 13.2425 5.27087ZM26.6654 12.3906C25.6354 15.2634 24.6754 17.1964 23.5637 18.6271C21.7654 20.9447 18.236 20.9467 16.4358 18.6269C15.3196 17.1904 14.3564 15.2484 13.3214 12.3556C14.3027 9.82696 15.6127 7.66993 16.1141 7.80079C19.0852 8.57298 20.9008 8.57298 23.8861 7.80079C24.6714 7.60274 26.4962 12.0448 26.6654 12.3906ZM11.6435 14.1594C11.5338 13.4768 11.7368 12.6391 12.4272 12.6777C12.3271 13.6758 12.3291 14.7971 12.4321 15.9771C12.0479 15.4444 11.7253 14.6544 11.6435 14.1594ZM15.7791 19.137C17.91 21.8828 22.0874 21.8859 24.2204 19.1373C25.1542 17.9353 25.98 16.4169 26.8159 14.3433C26.7667 19.3112 24.3129 27.538 19.9998 27.5498C15.5886 27.5377 13.2308 19.098 13.1837 14.3433C14.0197 16.4169 14.8456 17.9353 15.7791 19.137ZM15.7492 25.8237C16.82 27.2547 18.2189 28.3767 19.9989 28.3813H20.0009C21.8043 28.3767 23.2323 27.2166 24.308 25.7517C24.8113 26.0518 24.9928 26.0024 27.2946 26.6548V30.5994H12.7051V26.6892C15.3531 25.9666 15.2934 26.0571 15.7492 25.8237ZM9.88973 27.4312L11.8736 26.9099V30.5994H9.88973V27.4312ZM3.46137 37.4845V31.9028C3.46137 29.4287 6.03176 28.4232 7.57004 28.0426L9.05824 27.6503V30.5993H8.28199C7.14621 30.5993 6.22215 31.5234 6.22215 32.6592V39.1236H5.10082C4.19691 39.1237 3.46137 38.3884 3.46137 37.4845ZM7.05363 39.1237V32.6592C7.05363 31.9818 7.60457 31.4309 8.28199 31.4309H31.7178C32.3952 31.4309 32.9461 31.9818 32.9461 32.6592V39.1237H7.05363ZM36.5384 37.4845C36.5384 38.3884 35.8029 39.1237 34.8989 39.1237H33.7776V32.6592C33.7776 31.5234 32.8536 30.5994 31.7178 30.5994H30.9415V27.6411L32.4313 28.0441C33.9651 28.4257 36.5383 29.4342 36.5383 31.9029V37.4845H36.5384Z" fill="white"/>
</svg>
