<svg width="29" height="40" viewBox="0 0 29 40" fill="none" xmlns="http://www.w3.org/2000/svg">
<circle cx="6" cy="7" r="6" fill="#FF752B"/>
<path d="M17.3382 18.7515H8.61295C8.50245 18.7515 8.39649 18.7954 8.31835 18.8735C8.24022 18.9516 8.19633 19.0576 8.19633 19.1681C8.19633 19.2786 8.24022 19.3845 8.31835 19.4627C8.39649 19.5408 8.50245 19.5847 8.61295 19.5847H17.3382C17.3929 19.5847 17.447 19.5739 17.4976 19.553C17.5481 19.532 17.594 19.5013 17.6327 19.4626C17.6714 19.424 17.702 19.378 17.723 19.3275C17.7439 19.277 17.7546 19.2228 17.7546 19.1681C17.7546 19.1134 17.7439 19.0592 17.723 19.0087C17.702 18.9581 17.6714 18.9122 17.6327 18.8735C17.594 18.8348 17.5481 18.8041 17.4976 18.7832C17.447 18.7623 17.3929 18.7515 17.3382 18.7515ZM17.3382 21.8786H8.61295C8.50244 21.8786 8.39647 21.9225 8.31833 22.0006C8.24019 22.0788 8.19629 22.1847 8.19629 22.2952C8.19629 22.4057 8.24019 22.5117 8.31833 22.5899C8.39647 22.668 8.50244 22.7119 8.61295 22.7119H17.3382C17.3929 22.7119 17.447 22.7011 17.4976 22.6802C17.5481 22.6592 17.594 22.6285 17.6327 22.5898C17.6714 22.5511 17.7021 22.5052 17.723 22.4546C17.7439 22.4041 17.7547 22.3499 17.7546 22.2952C17.7546 22.2405 17.7439 22.1863 17.723 22.1358C17.702 22.0853 17.6714 22.0393 17.6327 22.0006C17.594 21.962 17.5481 21.9313 17.4976 21.9103C17.447 21.8894 17.3929 21.8786 17.3382 21.8786ZM17.3382 25.0056H8.61295C8.50244 25.0056 8.39647 25.0495 8.31833 25.1277C8.24019 25.2058 8.19629 25.3118 8.19629 25.4223C8.19629 25.5328 8.24019 25.6388 8.31833 25.7169C8.39647 25.795 8.50244 25.8389 8.61295 25.8389H17.3382C17.3929 25.8389 17.447 25.8281 17.4976 25.8072C17.5481 25.7862 17.594 25.7555 17.6327 25.7169C17.6714 25.6782 17.7021 25.6322 17.723 25.5817C17.7439 25.5311 17.7547 25.477 17.7546 25.4222C17.7547 25.3675 17.7439 25.3134 17.723 25.2628C17.7021 25.2123 17.6714 25.1663 17.6327 25.1277C17.594 25.089 17.5481 25.0583 17.4976 25.0373C17.447 25.0164 17.3929 25.0056 17.3382 25.0056ZM17.3382 28.1326H8.61295C8.50244 28.1326 8.39647 28.1765 8.31833 28.2546C8.24019 28.3328 8.19629 28.4387 8.19629 28.5492C8.19629 28.6597 8.24019 28.7657 8.31833 28.8439C8.39647 28.922 8.50244 28.9659 8.61295 28.9659H17.3382C17.3929 28.9659 17.447 28.9551 17.4976 28.9342C17.5481 28.9132 17.594 28.8825 17.6327 28.8438C17.6714 28.8051 17.7021 28.7592 17.723 28.7086C17.7439 28.6581 17.7547 28.6039 17.7546 28.5492C17.7547 28.4945 17.7439 28.4403 17.723 28.3898C17.7021 28.3392 17.6714 28.2933 17.6327 28.2546C17.594 28.2159 17.5481 28.1852 17.4976 28.1643C17.447 28.1434 17.3929 28.1326 17.3382 28.1326Z" fill="white"/>
<path d="M27.07 36.1175C27.3219 35.758 27.4431 35.3271 27.4138 34.8785C27.3492 33.8914 26.5227 33.1119 25.5136 33.0683C25.7415 32.7429 25.8636 32.3553 25.8632 31.9581C25.8632 30.8867 24.9924 30.015 23.9219 30.015L23.3945 30.0097C22.429 29.5259 21.7905 28.3696 21.806 27.1329C21.8131 26.5897 21.4073 26.1573 20.8523 26.1243V9.53834C20.8523 8.53676 20.0373 7.72176 19.0359 7.72176H18.1436V6.73443C18.1436 5.88483 17.4523 5.1937 16.6027 5.1937H16.4137V4.15806C16.4137 3.8083 16.6983 3.52369 17.0481 3.52369H19.2858C20.2636 3.52369 21.0696 2.79294 21.1201 1.86011C21.1761 0.837782 20.3647 0 19.361 0H13.6365C11.2993 0 9.3977 1.90161 9.3977 4.23878V5.19354H9.2087C8.35909 5.19354 7.66796 5.88467 7.66796 6.73428V7.72161H6.91521C5.91363 7.72161 5.09863 8.5366 5.09863 9.53818V38.1794C5.09863 39.1834 5.91363 40 6.91521 40H26.9313C27.9823 40 28.8559 39.2023 28.9198 38.1841C28.9897 37.0718 28.1322 36.1661 27.07 36.1175ZM10.2309 4.23886C10.2309 2.36106 11.7586 0.833397 13.6364 0.833397H19.361C19.4874 0.83317 19.6126 0.858818 19.7288 0.908765C19.845 0.958712 19.9497 1.0319 20.0366 1.12383C20.1235 1.21576 20.1906 1.32449 20.2339 1.44333C20.2771 1.56217 20.2956 1.6886 20.2882 1.81485C20.2618 2.29764 19.8122 2.69045 19.2856 2.69045H17.0479C16.2386 2.69045 15.5802 3.34878 15.5802 4.15814V5.1937H10.2308V4.23886H10.2309ZM8.50128 6.73435C8.50128 6.34436 8.81862 6.02694 9.2087 6.02694H16.6028C16.993 6.02694 17.3104 6.34428 17.3104 6.73435V7.71926H8.50128V6.73435ZM19.2898 29.9272C19.294 29.9751 19.2521 30.0149 19.204 30.0149C18.0195 30.0149 17.0917 31.0793 17.2892 32.2752H5.93195V15.4422H20.019V26.5034C19.621 27.0194 19.1643 28.4938 19.2898 29.9272ZM6.91521 8.555H19.0359C19.5779 8.555 20.019 8.99605 20.019 9.53826V14.609H5.93195V9.53826C5.93195 8.99605 6.373 8.555 6.91521 8.555ZM5.93195 38.1794V33.1084H17.3138C16.445 33.2765 15.7699 33.991 15.7121 34.8784C15.6829 35.327 15.804 35.7579 16.0559 36.1174C14.951 36.1674 14.1219 37.1254 14.208 38.2151C14.2361 38.5686 14.3672 38.8923 14.5655 39.1667H6.91521C6.373 39.1667 5.93195 38.7238 5.93195 38.1794ZM28.0881 38.1317C28.0518 38.712 27.5437 39.1667 26.9313 39.1667H16.197C15.5928 39.1667 15.084 38.7197 15.0388 38.1492C14.9872 37.5018 15.4938 36.9487 16.1431 36.9487H22.4745C22.5293 36.9487 22.5834 36.9379 22.634 36.917C22.6845 36.896 22.7305 36.8654 22.7692 36.8267C22.8078 36.788 22.8385 36.7421 22.8595 36.6915C22.8804 36.6409 22.8912 36.5868 22.8912 36.5321C22.8912 36.4773 22.8804 36.4231 22.8595 36.3726C22.8386 36.322 22.8079 36.2761 22.7692 36.2374C22.7305 36.1987 22.6846 36.168 22.634 36.1471C22.5834 36.1261 22.5293 36.1153 22.4745 36.1154H17.6492C17.0076 36.1154 16.5016 35.5746 16.5437 34.9325C16.5813 34.3531 17.0899 33.8994 17.7017 33.8994H19.2039C19.2586 33.8994 19.3128 33.8886 19.3633 33.8677C19.4139 33.8468 19.4598 33.8161 19.4985 33.7774C19.5372 33.7387 19.5679 33.6928 19.5888 33.6422C19.6098 33.5917 19.6205 33.5375 19.6205 33.4828C19.6205 33.428 19.6098 33.3739 19.5888 33.3233C19.5679 33.2727 19.5372 33.2268 19.4985 33.1881C19.4599 33.1494 19.4139 33.1187 19.3634 33.0978C19.3128 33.0768 19.2586 33.0661 19.2039 33.0661C18.5927 33.0661 18.0955 32.5689 18.0955 31.9579C18.0955 31.346 18.5927 30.8481 19.2039 30.8481C19.7418 30.8481 20.1669 30.3872 20.1198 29.8543C20.0344 28.8764 20.2199 27.9047 20.6566 27.0449C20.7351 26.8904 20.9752 26.9474 20.9727 27.1222C20.9536 28.6712 21.7768 30.1308 23.0206 30.7543C23.1443 30.8166 23.2814 30.8481 23.4279 30.8481H23.9219C24.5326 30.8481 25.0298 31.346 25.0298 31.9579C25.0298 32.5689 24.5327 33.0661 23.9219 33.0661H21.793C21.6825 33.0661 21.5766 33.11 21.4984 33.1881C21.4203 33.2662 21.3764 33.3722 21.3764 33.4827C21.3764 33.5932 21.4203 33.6992 21.4984 33.7773C21.5766 33.8555 21.6825 33.8994 21.793 33.8994H25.4242C26.0357 33.8994 26.5444 34.3533 26.5822 34.9325C26.6025 35.2432 26.4971 35.5388 26.2856 35.7646C26.0736 35.9908 25.7864 36.1154 25.4767 36.1154C25.3662 36.1154 25.2602 36.1593 25.1821 36.2374C25.1039 36.3155 25.06 36.4215 25.06 36.532C25.06 36.6425 25.1039 36.7485 25.1821 36.8266C25.2602 36.9048 25.3662 36.9487 25.4767 36.9487H26.9826C27.619 36.9487 28.1288 37.4834 28.0881 38.1315V38.1317H28.0881Z" fill="white"/>
</svg>
