<svg width="36" height="25" viewBox="0 0 36 25" fill="none" xmlns="http://www.w3.org/2000/svg">
<path d="M32.7042 10.9049C31.7421 10.7061 30.773 10.5396 29.7973 10.4103C29.7296 10.4014 29.6613 10.3944 29.5934 10.386C29.7716 9.40147 29.7681 8.37864 29.6363 7.3818C29.5611 6.77442 29.4268 6.17615 29.2667 5.58598C29.098 4.99581 28.8991 4.42404 28.6424 3.85312L28.5815 3.71739L28.4343 3.73106C27.8199 3.78829 27.2306 3.89279 26.6409 4.03425C26.0549 4.18112 25.475 4.35887 24.9167 4.59403C24.357 4.82463 23.8173 5.10756 23.3151 5.44671C23.065 5.61788 22.826 5.80509 22.6 6.00564C22.5311 6.06742 22.4671 6.13411 22.4017 6.19927C22.2371 5.94521 22.0702 5.69284 21.8991 5.4435C21.3381 4.62831 20.7367 3.84417 20.1166 3.07725C19.4927 2.31051 18.856 1.56706 18.1727 0.83813L17.8557 0.5L17.5471 0.846733C16.8807 1.59542 16.2638 2.35913 15.6591 3.14512C15.058 3.93111 14.4783 4.73499 13.9363 5.56673C13.815 5.75479 13.6958 5.94453 13.5778 6.13512C13.537 6.09815 13.4986 6.05882 13.4567 6.0232C13.2252 5.82906 12.9814 5.64844 12.7268 5.48435C12.2155 5.15922 11.6682 4.89148 11.1027 4.67642C10.5382 4.45696 9.95364 4.29541 9.36375 4.16475C8.77036 4.03982 8.17864 3.95153 7.56271 3.91153L7.41516 3.9019L7.3579 4.03932C7.11687 4.61717 6.9336 5.19416 6.78104 5.78888C6.63715 6.38327 6.51898 6.98492 6.46039 7.59417C6.3594 8.55826 6.37826 9.54311 6.56321 10.4898C6.43018 10.5092 6.29697 10.5273 6.16444 10.5485C5.19281 10.7049 4.22853 10.8982 3.27209 11.1237C2.31381 11.3508 1.37006 11.5994 0.421803 11.9053L0 12.0414L0.164916 12.4583C0.533303 13.3903 0.934575 14.2862 1.36222 15.1803C1.79103 16.0712 2.24571 16.9506 2.74046 17.8093C3.23804 18.6662 3.77117 19.5052 4.35639 20.312C4.65417 20.7121 4.95512 21.1105 5.28529 21.4889C5.44419 21.6824 5.62046 21.8634 5.78838 22.0501C5.96748 22.2283 6.13824 22.4134 6.32886 22.582C6.69624 22.9308 7.10152 23.247 7.53784 23.5245C7.75266 23.6678 7.98752 23.7851 8.21987 23.9043C8.45772 24.0046 8.69275 24.1109 8.94079 24.1866C9.43152 24.3488 9.94346 24.4536 10.4607 24.4884C10.9782 24.521 11.498 24.4842 12.0031 24.3875C13.0161 24.193 13.9553 23.7542 14.7953 23.2009C15.2151 22.9217 15.6117 22.6115 15.9871 22.2788C16.3615 21.94 16.7125 21.5955 17.0406 21.189L17.2798 20.8927L16.9397 20.7425C16.0648 20.3562 15.1401 20.0876 14.198 19.9624C13.2559 19.8429 12.2995 19.8501 11.3684 20.0027L11.0197 20.0608C10.9041 20.0832 10.7894 20.1106 10.6744 20.1351C10.4434 20.1805 10.218 20.2499 9.9912 20.3105C9.76669 20.3799 9.54353 20.4538 9.3232 20.534C9.10503 20.6206 8.8842 20.6992 8.67205 20.7995C8.24023 20.9845 7.83145 21.2018 7.40765 21.3893C7.14709 21.5055 6.88035 21.6083 6.60761 21.6922C6.535 21.6178 6.46306 21.5425 6.38961 21.469C6.23238 21.2918 6.06813 21.1219 5.91791 20.9368C5.60727 20.5772 5.32067 20.1931 5.03691 19.8076C4.47807 19.028 3.9643 18.2103 3.48374 17.3718C2.59874 15.828 1.80121 14.2118 1.11368 12.5702C2.80355 12.0459 4.54083 11.6048 6.28646 11.294C7.23539 11.1303 8.18865 10.9944 9.14442 10.9225C9.87486 10.8728 10.6086 10.8516 11.3336 10.8978C11.3289 10.9147 11.3235 10.9314 11.3189 10.9485C11.2461 11.1912 11.196 11.4426 11.1406 11.6912C11.1 11.9446 11.0501 12.1957 11.0338 12.4546C11.0036 12.71 11.0064 12.973 11.0079 13.231C11.0233 13.4869 11.0373 13.7427 11.0802 13.9964C11.1563 14.5032 11.2775 15.0069 11.4754 15.4813C11.6697 15.9561 11.9231 16.4055 12.2304 16.8108C12.8483 17.6213 13.6587 18.251 14.5377 18.7035C15.4197 19.1531 16.3671 19.4564 17.3341 19.5861C16.858 19.4816 16.3962 19.3239 15.9478 19.1408C15.5 18.9563 15.064 18.7442 14.6537 18.4918C13.8338 17.9905 13.0984 17.3475 12.5736 16.5591C12.3092 16.1678 12.0949 15.7451 11.9383 15.3018C11.7776 14.8597 11.6894 14.3934 11.6417 13.9256C11.6126 13.6918 11.6136 13.455 11.6056 13.2193C11.6133 12.9857 11.6171 12.7551 11.6534 12.5223C11.6754 12.2899 11.7301 12.0588 11.7747 11.828C11.8346 11.5986 11.8881 11.3685 11.9647 11.1423C11.984 11.0825 12.0049 11.0233 12.0251 10.9638C12.2516 10.9886 12.4736 11.0305 12.6973 11.0685C12.9248 11.1225 13.157 11.1671 13.377 11.2429C13.6031 11.3057 13.8145 11.3975 14.0298 11.4871C14.2404 11.5913 14.4546 11.6907 14.6539 11.8157C15.4666 12.2883 16.1628 12.961 16.6497 13.7789C17.139 14.5963 17.4137 15.5432 17.5225 16.5083C17.6212 17.4753 17.585 18.4679 17.381 19.4308C17.6529 18.4846 17.7672 17.4874 17.7197 16.4923C17.6706 15.4988 17.4372 14.4962 16.9584 13.601C16.7207 13.154 16.4235 12.7369 16.0782 12.3638C15.7338 11.9887 15.3307 11.6733 14.9073 11.3973C14.6971 11.2547 14.4731 11.1389 14.2506 11.0185C14.0206 10.911 13.7871 10.8001 13.546 10.7224C13.3079 10.6306 13.0625 10.5727 12.8188 10.5053C12.6245 10.4645 12.4302 10.4196 12.2347 10.3868C12.8308 8.85401 13.6868 7.40696 14.6148 6.02692C15.6103 4.552 16.7068 3.1257 17.8724 1.78887C19.0709 3.08805 20.2009 4.47992 21.2351 5.92056C22.241 7.33015 23.1707 8.81417 23.8148 10.4003C23.5895 10.4395 23.3665 10.4981 23.1433 10.5514C22.9016 10.6255 22.6579 10.6904 22.4222 10.7886C22.1835 10.8728 21.953 10.9903 21.726 11.1041C21.507 11.2306 21.286 11.3526 21.0799 11.501C20.6641 11.7887 20.2697 12.115 19.9357 12.4995C19.6005 12.8819 19.3149 13.3071 19.0894 13.7607C18.6349 14.6688 18.4289 15.6774 18.4069 16.6719C18.3863 17.6679 18.5277 18.6615 18.8252 19.5999C18.595 18.6431 18.5319 17.6518 18.6043 16.6825C18.687 15.7147 18.9358 14.7606 19.4029 13.9299C19.8672 13.0986 20.5451 12.407 21.3446 11.9119C21.5406 11.7816 21.7517 11.6762 21.9597 11.5662C22.1725 11.4706 22.3813 11.3729 22.6057 11.3038C22.8237 11.2219 23.0544 11.171 23.2805 11.1107C23.5119 11.0648 23.7412 11.0138 23.9764 10.9831C23.9956 10.98 24.0151 10.978 24.0343 10.9751C24.1886 11.4124 24.3052 11.8597 24.3773 12.3098C24.4202 12.5405 24.4323 12.7713 24.4494 13.0027C24.4469 13.2367 24.4561 13.4719 24.4319 13.7048C24.3965 14.1714 24.3074 14.6341 24.1587 15.0791C24.0083 15.5236 23.7978 15.9478 23.5428 16.3456C23.0345 17.1452 22.3328 17.82 21.5519 18.3804C21.16 18.6602 20.7454 18.9097 20.3167 19.1343C19.8876 19.3579 19.4453 19.5609 18.9847 19.7173C19.9292 19.4819 20.838 19.0916 21.6818 18.5815C22.5221 18.0675 23.2922 17.406 23.8889 16.5875C24.1856 16.1781 24.4329 15.7281 24.6207 15.252C24.806 14.7748 24.928 14.2721 24.9911 13.7627C25.0283 13.508 25.0345 13.2516 25.0442 12.9948C25.035 12.7362 25.029 12.4759 24.9911 12.2218C24.9343 11.7696 24.8365 11.3264 24.7085 10.8961C25.4094 10.836 26.1201 10.8381 26.828 10.8664C27.7855 10.9118 28.7421 11.0211 29.6952 11.1585C31.4486 11.4206 33.1973 11.8135 34.9007 12.2905C34.2579 13.9506 33.5046 15.5883 32.6618 17.156C32.204 18.0077 31.7127 18.8393 31.1752 19.634C30.902 20.0274 30.6259 20.4192 30.3253 20.7874C30.1802 20.9766 30.0207 21.151 29.8683 21.3325C29.797 21.4079 29.7271 21.4852 29.6565 21.5617C29.3815 21.4852 29.112 21.39 28.8484 21.2811C28.4198 21.1056 28.0051 20.8998 27.5685 20.7268C27.3537 20.6324 27.1308 20.56 26.9103 20.4794C26.688 20.4053 26.4628 20.3376 26.2366 20.2745C26.0083 20.2201 25.7811 20.1572 25.5489 20.1182C25.4333 20.0967 25.3179 20.0726 25.2018 20.0535L24.8517 20.0053C23.917 19.8785 22.9607 19.8979 22.0221 20.0436C21.0839 20.195 20.1668 20.4891 19.3027 20.8995L18.9667 21.059L19.2139 21.3485C19.5531 21.7457 19.9133 22.0805 20.2967 22.4088C20.6811 22.7311 21.0859 23.03 21.513 23.2974C22.3677 23.8273 23.3184 24.2399 24.3364 24.406C24.8439 24.4887 25.3647 24.511 25.8809 24.4641C26.3971 24.415 26.906 24.296 27.3922 24.1201C27.6381 24.0377 27.8701 23.9247 28.1053 23.8179C28.3343 23.6925 28.566 23.5685 28.7768 23.4193C29.2054 23.1298 29.602 22.8025 29.9597 22.4437C30.1457 22.2699 30.3114 22.0801 30.4857 21.8971C30.6486 21.7059 30.8199 21.52 30.9734 21.3222C31.2933 20.9347 31.5833 20.5282 31.8699 20.1199C32.4331 19.2971 32.9432 18.4437 33.4173 17.5732C33.8885 16.7011 34.3191 15.8094 34.7236 14.9068C35.1267 14.0013 35.5036 13.0946 35.8466 12.1526L36 11.7313L35.5747 11.607C34.6184 11.3278 33.6682 11.1053 32.7042 10.9049ZM7.44454 21.4832C7.88436 21.3282 8.3095 21.1314 8.74232 20.9766C9.60512 20.6525 10.505 20.4425 11.412 20.3437C12.3195 20.2396 13.2358 20.2853 14.1286 20.4293C14.8901 20.561 15.6312 20.7916 16.3359 21.102C16.0997 21.3461 15.8438 21.5838 15.5838 21.8041C15.2207 22.1081 14.8395 22.3892 14.4412 22.6386C13.6442 23.1349 12.7727 23.5003 11.8722 23.656C11.4225 23.7341 10.9662 23.7583 10.5148 23.7223C10.0636 23.684 9.61897 23.5847 9.18999 23.435C8.9735 23.3658 8.76702 23.2665 8.55804 23.1755C8.35991 23.068 8.15995 22.9661 7.9715 22.8349C7.59009 22.5844 7.22954 22.2901 6.8897 21.9669C6.8034 21.89 6.72078 21.8082 6.63915 21.7249C6.91207 21.6606 7.18114 21.5786 7.44454 21.4832ZM12.437 8.14922C12.0895 8.84033 11.7704 9.55104 11.52 10.2923C10.7141 10.2084 9.90657 10.2069 9.1047 10.2386C8.28513 10.2768 7.47057 10.3603 6.66169 10.4758C6.63498 10.1237 6.6223 9.77168 6.63248 9.42022C6.64133 8.82245 6.70225 8.22755 6.79305 7.63907C6.88903 7.05127 7.01205 6.46802 7.17463 5.89592C7.32001 5.37445 7.49027 4.85113 7.69391 4.35871C8.22053 4.39382 8.75818 4.4708 9.28347 4.56956C9.86184 4.67338 10.431 4.82227 10.9917 4.99767C11.5502 5.17931 12.0987 5.3964 12.6212 5.67004C12.8846 5.80324 13.1363 5.9582 13.3848 6.12026C13.4322 6.15217 13.4778 6.18745 13.5245 6.22054C13.1389 6.84785 12.7729 7.48916 12.437 8.14922ZM29.5069 10.3757C28.6264 10.2685 27.7401 10.1983 26.8494 10.1816C26.0732 10.1724 25.2926 10.1944 24.5154 10.292C24.2328 9.48487 23.8651 8.71778 23.4653 7.97416C23.1475 7.39243 22.8053 6.82674 22.4479 6.27202C22.5229 6.21395 22.597 6.15504 22.674 6.10017C22.918 5.93136 23.1654 5.76948 23.4251 5.62903C23.94 5.34086 24.4823 5.10874 25.0357 4.91174C25.5913 4.72081 26.1564 4.55639 26.7316 4.43653C27.254 4.32326 27.7895 4.23142 28.3148 4.18162C28.5318 4.66831 28.7162 5.18674 28.8756 5.70381C29.0537 6.27119 29.1924 6.85088 29.3043 7.43565C29.4111 8.02126 29.488 8.6143 29.5132 9.21156C29.5351 9.59848 29.5294 9.98674 29.5069 10.3757ZM29.3819 21.8438C29.051 22.1764 28.6985 22.4805 28.3241 22.7415C28.1392 22.8779 27.9422 22.9855 27.7471 23.0984C27.5406 23.1953 27.337 23.3001 27.1225 23.3754C26.6978 23.5371 26.256 23.6486 25.806 23.6994C25.3558 23.7478 24.8991 23.7363 24.4475 23.6707C23.5429 23.5402 22.6618 23.199 21.8517 22.725C21.4468 22.4868 21.058 22.2165 20.687 21.9226C20.4211 21.7096 20.1588 21.4792 19.9161 21.2416C20.6122 20.9118 21.3466 20.6607 22.1044 20.508C22.9929 20.3392 23.9076 20.2681 24.8177 20.3469C25.727 20.4205 26.6322 20.6054 27.5035 20.9054C27.9404 21.0482 28.3707 21.233 28.8147 21.3757C29.0806 21.4636 29.3518 21.5384 29.6261 21.5946C29.5463 21.6804 29.466 21.7646 29.3819 21.8438Z" fill="#FF752B"/>
</svg>
