<svg width="19" height="15" viewBox="0 0 19 15" fill="none" xmlns="http://www.w3.org/2000/svg">
<path d="M18 5C18.1458 5.02083 18.2292 5.10417 18.25 5.25C18.2708 5.5625 18.2188 6.0625 18.0938 6.75C17.9896 7.4375 17.7396 8.19792 17.3438 9.03125C16.9271 9.88542 16.3021 10.6979 15.4688 11.4688C14.1562 12.6771 12.9479 13.4167 11.8438 13.6875C10.7188 13.9375 9.875 14.0417 9.3125 14H9.1875C8.625 14.0417 7.79167 13.9375 6.6875 13.6875C5.5625 13.4167 4.34375 12.6771 3.03125 11.4688C2.19792 10.6979 1.58333 9.88542 1.1875 9.03125C0.770833 8.19792 0.510417 7.4375 0.40625 6.75C0.28125 6.0625 0.229167 5.5625 0.25 5.25C0.270833 5.10417 0.354167 5.02083 0.5 5C0.854167 4.97917 1.45833 5.04167 2.3125 5.1875C3.16667 5.33333 4.10417 5.64583 5.125 6.125C5.54167 4.89583 6.07292 3.77083 6.71875 2.75C7.36458 1.70833 8.09375 0.833333 8.90625 0.125C9.01042 0.0416667 9.125 0 9.25 0C9.375 0 9.48958 0.0416667 9.59375 0.125C10.4062 0.833333 11.1354 1.70833 11.7812 2.75C12.4271 3.77083 12.9688 4.89583 13.4062 6.125C14.4062 5.64583 15.3333 5.33333 16.1875 5.1875C17.0417 5.04167 17.6458 4.97917 18 5ZM4.0625 10.4062C4.91667 11.1979 5.71875 11.7396 6.46875 12.0312C7.23958 12.3021 7.88542 12.4479 8.40625 12.4688L7.875 11.125C7.47917 10.1667 6.91667 9.36458 6.1875 8.71875L6.15625 8.6875L6.125 8.65625C5.4375 8.01042 4.71875 7.54167 3.96875 7.25C3.21875 6.9375 2.53125 6.72917 1.90625 6.625C2.01042 7.1875 2.22917 7.80208 2.5625 8.46875C2.875 9.11458 3.36458 9.73958 4.03125 10.3438L4.0625 10.375V10.4062ZM9.25 10.5625C9.625 9.54167 10.3125 8.55208 11.3125 7.59375C11.5625 7.36458 11.8229 7.14583 12.0938 6.9375C11.4479 4.89583 10.5 3.20833 9.25 1.875C8 3.20833 7.05208 4.89583 6.40625 6.9375C6.67708 7.14583 6.9375 7.36458 7.1875 7.59375C8.1875 8.55208 8.875 9.54167 9.25 10.5625ZM14.4688 10.3438C15.1354 9.73958 15.625 9.11458 15.9375 8.46875C16.2708 7.80208 16.4896 7.1875 16.5938 6.625C15.9688 6.72917 15.2812 6.9375 14.5312 7.25C13.7812 7.54167 13.0625 8.01042 12.375 8.65625L12.3438 8.6875L12.3125 8.71875C11.5833 9.36458 11.0208 10.1667 10.625 11.125L10.0625 12.4688C10.6042 12.4479 11.2604 12.3021 12.0312 12.0312C12.7812 11.7396 13.5833 11.1979 14.4375 10.4062L14.4688 10.375V10.3438Z" fill="#FF752B"/>
</svg>
